# xmcd
#
# Track frame offsets: 
#        150
#        21437
#        38200
#        55300
#        75425
#        99362
#        128362
#        150262
#        168125
#        184025
#        197800
#        213975
#        236575
#        253112
#        266150
#        285075
#        304200
#        317087
#
# Disc length: 4380 seconds
#
# Revision: 0
# Processed by: cddbd v1.4PL0 Copyright (c) Steve Scherf et al.
# Submitted via: ExactAudioCopy v0.95a3
#
DISCID=e6111a12
DTITLE=Eric Clapton - The Best Of
DYEAR=1900
DGENRE=
TTITLE0=Tears In Heaven
TTITLE1=Cocaine
TTITLE2=Wonderful Tonight
TTITLE3=I Shot The Sherife
TTITLE4=After Midnight
TTITLE5=Knockin' On Heavens Door
TTITLE6=Layla
TTITLE7=Lay Down Sally
TTITLE8=Willie And The Hand Jive
TTITLE9=Promises
TTITLE10=Swing Low Sweet Chariot
TTITLE11=Let It Grow
TTITLE12=Badge
TTITLE13=I Feel Free
TTITLE14=Sunshine Of Your Love
TTITLE15=Crossroads
TTITLE16=Strange Brew
TTITLE17=We're All The Way
EXTD=
EXTT0=
EXTT1=
EXTT2=
EXTT3=
EXTT4=
EXTT5=
EXTT6=
EXTT7=
EXTT8=
EXTT9=
EXTT10=
EXTT11=
EXTT12=
EXTT13=
EXTT14=
EXTT15=
EXTT16=
EXTT17=
PLAYORDER=
